<svg width="32" height="32" viewBox="0 0 32 32" fill="none" xmlns="http://www.w3.org/2000/svg">
  <path
    d="M25.7078 8.04738L22.3348 9.52505C22.2364 9.57821 22.1543 9.65653 22.0971 9.7518C22.0399 9.84707 22.0096 9.95578 22.0096 10.0666V21.9797C22.0092 22.0916 22.0403 22.2015 22.0993 22.2971C22.1584 22.3927 22.2431 22.4703 22.3441 22.5212L25.7171 23.9621C25.7651 23.9881 25.8192 24.0011 25.874 24C25.9287 23.9989 25.9822 23.9837 26.0292 23.9559C26.0762 23.9281 26.1149 23.8886 26.1417 23.8414C26.1684 23.7942 26.1822 23.7409 26.1817 23.6868V8.32273C26.1799 8.26855 26.1643 8.21569 26.1363 8.16908C26.1083 8.12246 26.0688 8.0836 26.0215 8.05612C25.9742 8.02864 25.9206 8.01342 25.8658 8.0119C25.8109 8.01037 25.7566 8.02258 25.7078 8.04738ZM9.55364 9.50669L6.28285 8.03821C6.23479 8.01228 6.1807 7.99921 6.12594 8.00031C6.07119 8.0014 6.01768 8.01662 5.97072 8.04445C5.92376 8.07228 5.88498 8.11176 5.85824 8.15896C5.83149 8.20617 5.81771 8.25946 5.81825 8.31355V23.6776C5.81829 23.7333 5.83338 23.788 5.86195 23.836C5.89052 23.884 5.93154 23.9236 5.98078 23.9507C6.03002 23.9779 6.0857 23.9915 6.14206 23.9903C6.19843 23.9891 6.25345 23.973 6.30144 23.9438L9.5908 22.2275C9.68165 22.1728 9.75673 22.096 9.80881 22.0043C9.86088 21.9127 9.88821 21.8094 9.88815 21.7043V10.0482C9.8846 9.93706 9.85191 9.82874 9.79327 9.73382C9.73464 9.63891 9.65207 9.56065 9.55364 9.50669ZM19.812 13.5726L16.2903 11.5809C16.1958 11.5268 16.0884 11.4983 15.9791 11.4983C15.8697 11.4983 15.7623 11.5268 15.6678 11.5809L12.0811 13.5542C11.9851 13.6094 11.9055 13.6884 11.85 13.7834C11.7946 13.8784 11.7653 13.9861 11.7651 14.0957V18.1341C11.7651 18.3571 11.8859 18.5636 12.0811 18.6756L15.6678 20.7131C15.8601 20.8232 16.098 20.8232 16.2903 20.7131L19.812 18.6939C19.908 18.6388 19.9876 18.5598 20.043 18.4648C20.0985 18.3698 20.1277 18.2621 20.1279 18.1524V14.1141C20.1289 14.0042 20.1001 13.8961 20.0445 13.8009C19.989 13.7057 19.9087 13.6269 19.812 13.5726Z"
    fill="url(#paint0_linear_268_2934)" />
  <defs>
    <linearGradient id="paint0_linear_268_2934" x1="16" y1="8.00024" x2="16" y2="24.0001"
      gradientUnits="userSpaceOnUse">
      <stop stop-color="#00B2FB" />
      <stop offset="1" stop-color="#2963E5" />
    </linearGradient>
  </defs>
</svg>
